Coordinates
version=1
nRows=13
nColumns=38
inDegrees=no

Units are S.I. units (second, meters, Newtons, ...)
If the header above contains a line with 'inDegrees', this indicates whether rotational values are in degrees (yes) or radians (no).

endheader
time	pelvis_tilt	pelvis_list	pelvis_rotation	pelvis_tx	pelvis_ty	pelvis_tz	hip_flexion_r	hip_adduction_r	hip_rotation_r	knee_angle_r	ankle_angle_r	subtalar_angle_r	mtp_angle_r	hip_flexion_l	hip_adduction_l	hip_rotation_l	knee_angle_l	ankle_angle_l	subtalar_angle_l	mtp_angle_l	lumbar_extension	lumbar_bending	lumbar_rotation	arm_flex_r	arm_add_r	arm_rot_r	elbow_flex_r	pro_sup_r	wrist_flex_r	wrist_dev_r	arm_flex_l	arm_add_l	arm_rot_l	elbow_flex_l	pro_sup_l	wrist_flex_l	wrist_dev_l
1.75	-3.01199	1.47881	-1.71285	0.81693	0.805846	0.947737	-0.162402	0.024012	-0.249601	0.151589	0.155893	0	0	0.309674	-0.210091	-0.440602	0.664804	0.0694834	0	0	-0.217196	0.0411771	0.0263046	0.0537748	-0.378953	0.294953	0.848471	1.35877	0	0	-0.175485	-0.290476	0.545489	0.747778	0.871237	0	0
1.76	-3.0108	1.48039	-1.71446	0.816991	0.813365	0.946563	-0.170264	0.0241173	-0.249299	0.151291	0.163325	0	0	0.31501	-0.201605	-0.452957	0.61755	0.0678844	0	0	-0.218665	0.0403196	0.025289	0.0584413	-0.379933	0.287241	0.858654	1.36442	0	0	-0.172669	-0.288358	0.548808	0.746713	0.868966	0	0
1.77	-3.01119	1.48254	-1.71379	0.816919	0.820856	0.945214	-0.177138	0.0244105	-0.250152	0.151828	0.170986	0	0	0.320526	-0.191929	-0.462391	0.569078	0.0664004	0	0	-0.219685	0.0397408	0.0236136	0.0628956	-0.380462	0.279387	0.867927	1.36986	0	0	-0.16923	-0.286633	0.552795	0.745587	0.866649	0	0
1.78	-3.01336	1.48575	-1.71016	0.816642	0.828325	0.943643	-0.182707	0.0251069	-0.252074	0.152765	0.178675	0	0	0.326903	-0.180852	-0.467771	0.519517	0.0658323	0	0	-0.219565	0.039628	0.0205035	0.0677807	-0.381029	0.273348	0.875873	1.37467	0	0	-0.16557	-0.285112	0.557186	0.744344	0.864834	0	0
1.79	-3.01275	1.48997	-1.70891	0.816238	0.835749	0.941873	-0.186583	0.0256646	-0.254213	0.154537	0.186607	0	0	0.333656	-0.16815	-0.468842	0.468469	0.0665206	0	0	-0.218504	0.039423	0.0168824	0.0725882	-0.380862	0.266592	0.882724	1.37908	0	0	-0.161535	-0.283716	0.561524	0.743019	0.863454	0	0
1.8	-2.98973	1.49466	-1.72991	0.815682	0.843203	0.939974	-0.188702	0.0242129	-0.258043	0.158384	0.19609	0	0	0.33849	-0.150714	-0.461618	0.411527	0.0659902	0	0	-0.216703	0.0374842	0.0131516	0.0765935	-0.379739	0.257734	0.888763	1.38594	0	0	-0.156792	-0.282653	0.56637	0.741288	0.862656	0	0
1.81	-2.95185	1.49957	-1.76596	0.815083	0.850756	0.937894	-0.190133	0.0219361	-0.261833	0.162934	0.206674	0	0	0.34153	-0.131079	-0.447502	0.351235	0.0659951	0	0	-0.214225	0.0345011	0.00963298	0.0801531	-0.378329	0.249355	0.893631	1.39371	0	0	-0.151894	-0.282418	0.571972	0.739811	0.864377	0	0
1.82	-2.77955	1.49542	-1.93724	0.814092	0.858229	0.936963	-0.197208	0.00573196	-0.269352	0.169391	0.219991	0	0	0.297841	-0.0711074	-0.352831	0.196872	0.0189609	0	0	-0.219101	0.0193056	0.00490818	0.0858236	-0.374688	0.241336	0.894191	1.39991	0	0	-0.144676	-0.282877	0.578234	0.735642	0.872199	0	0
1.83	-2.73459	1.49372	-1.98285	0.813605	0.866677	0.935101	-0.207763	0.00114993	-0.271765	0.170489	0.231917	0	0	0.270559	-0.0442275	-0.291053	0.0930481	-0.0109468	0	0	-0.221065	0.0135512	0.00307896	0.0880418	-0.374055	0.237867	0.898985	1.39648	0	0	-0.141565	-0.283707	0.582177	0.734728	0.890633	0	0
1.84	-2.73005	1.49703	-1.98849	0.813334	0.875265	0.932606	-0.215519	0.00235981	-0.270348	0.169971	0.242465	0	0	0.258981	-0.0330338	-0.25202	0.0224565	-0.023148	0	0	-0.218721	0.0126505	0.00249087	0.0892816	-0.373427	0.233991	0.902927	1.40102	0	0	-0.139395	-0.28448	0.585524	0.734836	0.899445	0	0
1.85	-2.7515	1.49607	-1.96333	0.813183	0.883343	0.930365	-0.227628	0.00845911	-0.263517	0.16981	0.2484	0	0	0.261993	-0.0299112	-0.229458	0	-0.0243535	0	0	-0.222128	0.0111897	-0.00015741	0.0903135	-0.372536	0.231566	0.906074	1.40285	0	0	-0.135126	-0.286683	0.588085	0.735405	0.908047	0	0
1.86	-2.80676	1.49457	-1.9066	0.813049	0.891563	0.92834	-0.243842	0.0133529	-0.260953	0.165279	0.255199	0	0	0.271447	-0.0308652	-0.217021	0	-0.0177119	0	0	-0.227403	0.0121145	-0.00215417	0.0925862	-0.37103	0.229834	0.907931	1.4013	0	0	-0.132668	-0.28531	0.576791	0.730241	0.979879	0	0
1.87	-2.85373	1.49395	-1.85966	0.812917	0.90001	0.926251	-0.25698	0.0167459	-0.260341	0.164478	0.262735	0	0	0.280228	-0.0317947	-0.207638	0	-0.0108108	0	0	-0.230999	0.0127152	-0.00256452	0.0944319	-0.369299	0.228666	0.90801	1.39783	0	0	-0.128899	-0.286858	0.577915	0.729613	0.989705	0	0
